<?xml version="1.0" encoding="UTF-8"?>
<!DOCTYPE svg PUBLIC "-//W3C//DTD SVG 1.1//EN" "http://www.w3.org/Graphics/SVG/1.1/DTD/svg11.dtd">
<!-- Creator: CorelDRAW X7 -->
<svg xmlns="http://www.w3.org/2000/svg" xml:space="preserve" width="35.8925mm" height="55.3523mm" version="1.1" style="shape-rendering:geometricPrecision; text-rendering:geometricPrecision; image-rendering:optimizeQuality; fill-rule:evenodd; clip-rule:evenodd"
viewBox="0 0 198 306"
 xmlns:xlink="http://www.w3.org/1999/xlink">
 <defs>
  <style type="text/css">
   <![CDATA[
    .fil0 {fill:white}
   ]]>
  </style>
 </defs>
 <g id="Camada_x0020_1">
  <metadata id="CorelCorpID_0Corel-Layer"/>
  <path id="scroll.svg" class="fil0" d="M99 49l-53 57 17 16 36 -38 36 38 18 -16 -54 -57zm99 23l0 162c0,40 -32,72 -71,72l-55 0c-40,0 -72,-32 -72,-72l0 -162c0,-40 32,-72 72,-72l55 0c39,0 71,32 71,72zm-71 210c26,0 48,-21 48,-48l0 -162c0,-27 -22,-48 -48,-48l-55 0c-27,0 -48,21 -48,48l0 162c0,27 21,48 48,48l55 0zm-28 -24c-6,0 -12,-6 -12,-12 0,-7 6,-12 12,-12 7,0 12,5 12,12 0,6 -5,12 -12,12zm0 -48c-6,0 -12,-6 -12,-12 0,-7 6,-12 12,-12 7,0 12,5 12,12 0,6 -5,12 -12,12zm0 -48c-6,0 -12,-5 -12,-12 0,-7 6,-12 12,-12 7,0 12,5 12,12 0,7 -5,12 -12,12zm0 0z"/>
 </g>
</svg>
