<?xml version="1.0" encoding="UTF-8"?>
<!DOCTYPE svg PUBLIC "-//W3C//DTD SVG 1.1//EN" "http://www.w3.org/Graphics/SVG/1.1/DTD/svg11.dtd">
<!-- Creator: CorelDRAW X7 -->
<svg xmlns="http://www.w3.org/2000/svg" xml:space="preserve" width="11.71mm" height="11.7657mm" version="1.1" style="shape-rendering:geometricPrecision; text-rendering:geometricPrecision; image-rendering:optimizeQuality; fill-rule:evenodd; clip-rule:evenodd"
viewBox="0 0 71 72"
 xmlns:xlink="http://www.w3.org/1999/xlink">
 <defs>
  <style type="text/css">
   <![CDATA[
    .fil0 {fill:#ED3125}
   ]]>
  </style>
 </defs>
 <g id="Camada_x0020_1">
  <metadata id="CorelCorpID_0Corel-Layer"/>
  <path class="fil0" d="M0 72l38 0c1,-7 -1,-9 -1,-13 -1,-2 0,-7 0,-11 0,-1 0,-2 0,-3 1,-1 5,0 7,-1 1,0 3,-2 4,-2 3,0 4,-1 5,-2 2,-2 4,-2 5,-3 0,-1 -2,-3 -2,-5 -2,-2 -1,-3 -1,-6 0,-4 -2,-5 2,-6 1,-1 0,-3 2,-3 2,-1 4,-1 6,-1 1,0 1,0 2,0 1,0 2,-2 3,1 2,2 1,9 0,12 -3,11 -5,23 -9,33 -2,5 -2,6 -4,10l0 0c1,-2 2,-4 4,-8 3,-8 6,-19 8,-27 1,-5 3,-15 2,-20 -1,-2 -1,-2 -3,-2 -2,-1 -4,0 -5,0 -1,0 -5,1 -6,0 0,-1 1,-1 -1,-1 -1,-1 -1,-1 -2,-1 -1,0 -1,0 -2,1 -1,0 -2,0 -2,0 -1,1 -1,1 -1,1 -1,1 -1,2 0,3 1,3 0,3 0,5 0,1 -1,2 -1,2 1,2 1,2 -1,2 0,1 0,1 -1,1 -1,0 0,0 0,0 -1,0 -1,0 -1,0 -1,0 0,-1 -1,-1 -1,0 -1,1 -2,1 -1,-1 -1,-1 -1,-1 -1,-1 -1,-1 -2,-1 0,0 -1,-2 -2,-2l2 -2c1,-1 6,0 6,-1 1,0 0,-1 1,-2 2,-1 0,0 1,-2 0,-1 0,-1 0,-2 1,-1 1,-1 2,-1 0,-1 -1,-2 -2,-3 0,-1 1,-4 0,-6 -1,-2 -4,-4 -6,-4l-7 -1c0,0 0,0 -1,1 -3,1 -6,3 -6,6 0,5 3,4 -2,7 -1,1 -2,1 -2,2 1,0 5,0 6,-1 3,0 1,3 -1,3 -5,0 -7,1 -10,6 -1,2 -2,2 -2,4 -1,0 -1,1 -1,2l-3 5c-2,7 -4,13 -6,20 -1,3 -2,6 -3,9 -1,2 -3,5 -3,8z"/>
 </g>
</svg>
